<?xml version="1.0" standalone="no"?>
<!DOCTYPE svg PUBLIC "-//W3C//DTD SVG 20010904//EN"
 "http://www.w3.org/TR/2001/REC-SVG-20010904/DTD/svg10.dtd">
<svg version="1.0" xmlns="http://www.w3.org/2000/svg"
 width="1214.000000pt" height="276.000000pt" viewBox="0 0 1214.000000 276.000000"
 preserveAspectRatio="xMidYMid meet">

<g transform="translate(0.000000,276.000000) scale(0.100000,-0.100000)"
stroke="none">
<g fill="#2563EB">
<path d="M51 2746 c-53 -29 -50 35 -51 -1353 0 -799 4 -1301 10 -1317 21 -57
-39 -54 1288 -62 l1220 -7 31 31 31 30 0 1305 c0 1293 0 1305 -20 1330 -11 14
-35 30 -53 35 -20 6 -490 12 -1232 16 -975 4 -1204 2 -1224 -8z m764 -408 c91
-48 125 -106 125 -210 0 -79 -24 -134 -77 -178 l-40 -33 64 -133 c34 -72 63
-136 63 -142 0 -14 -37 -22 -105 -21 -115 2 -113 1 -166 124 -26 61 -52 116
-58 123 -7 6 -30 12 -53 12 l-41 0 7 -125 8 -126 -114 3 -113 3 2 365 c1 201
3 366 3 368 0 2 100 2 223 0 218 -3 223 -3 272 -30z m380 -259 l49 -52 45 52
46 51 78 0 77 0 0 -59 c0 -57 -2 -60 -55 -120 -30 -34 -55 -67 -55 -72 0 -6
25 -38 55 -72 53 -59 55 -62 55 -118 l0 -58 -36 -7 c-19 -3 -54 -4 -77 -1 -42
6 -52 13 -108 88 l-27 34 -23 -30 c-69 -87 -70 -87 -141 -87 -36 0 -71 3 -77
6 -6 4 -11 31 -11 60 0 51 3 56 60 121 l59 67 -59 68 c-58 65 -60 68 -60 123
l0 57 79 0 78 0 48 -51z m35 -878 l255 -6 0 -45 0 -45 -575 -3 c-430 -2 -581
1 -597 9 -26 14 -32 66 -11 87 13 13 448 15 928 3z m1133 -401 c5 -4 -37 -34
-92 -65 -83 -47 -99 -60 -92 -73 5 -10 34 -57 65 -107 42 -69 52 -93 43 -101
-15 -14 -187 -114 -195 -114 -4 0 -36 47 -71 105 -35 58 -66 105 -70 105 -3 0
-44 -22 -91 -50 -47 -27 -88 -50 -92 -50 -5 0 -8 149 -8 330 l0 330 298 -151
c163 -84 301 -155 305 -159z m-867 23 c28 -18 32 -58 7 -85 -15 -17 -47 -18
-592 -18 -642 0 -621 -2 -621 65 0 24 7 39 23 50 20 16 71 16 591 11 492 -6
571 -9 592 -23z m9 -380 c29 -21 32 -58 8 -85 -15 -17 -47 -18 -592 -18 -642
0 -621 -2 -621 65 0 24 7 39 23 50 20 16 71 17 590 11 524 -5 569 -7 592 -23z"/>
<path d="M526 2155 c-3 -30 -3 -73 0 -95 l7 -40 63 0 c82 0 111 14 125 60 9
29 8 44 -5 73 -18 44 -46 57 -125 57 l-58 0 -7 -55z"/>
</g>
<g fill="#1F2937">
<path d="M3350 2220 c-63 -4 -123 -11 -133 -15 -29 -12 -34 -42 -26 -159 19
-293 21 -727 4 -1130 -17 -403 -17 -409 3 -435 27 -37 73 -42 313 -39 165 2
210 6 224 18 16 13 17 28 12 155 -4 77 -11 196 -16 264 -5 67 -7 129 -4 137 4
10 24 14 68 14 107 0 101 7 197 -227 47 -114 94 -232 105 -261 10 -30 26 -62
35 -72 23 -25 124 -33 340 -28 176 4 218 12 218 44 0 27 -54 152 -174 401
l-116 243 88 87 c61 61 97 105 115 143 54 116 72 304 42 443 -40 189 -185 332
-405 398 -71 22 -94 23 -425 25 -192 1 -402 -2 -465 -6z m830 -35 c208 -42
374 -174 426 -338 22 -70 29 -245 14 -336 -19 -115 -66 -197 -166 -288 -46
-43 -84 -83 -84 -89 0 -6 49 -112 109 -235 123 -255 181 -384 181 -404 0 -22
-68 -27 -288 -23 -163 2 -204 6 -216 18 -7 8 -49 103 -91 210 -127 318 -137
337 -182 350 -21 6 -69 10 -108 8 l-70 -3 1 -135 c0 -74 5 -200 12 -280 8 -99
8 -148 1 -155 -6 -6 -96 -10 -244 -10 -205 0 -236 2 -251 17 -15 15 -15 46 1
455 14 369 15 494 6 793 -6 195 -14 372 -17 392 -6 34 -4 38 22 49 33 12 633
29 784 22 52 -3 124 -11 160 -18z"/>
<path d="M3730 1830 c-13 -6 -28 -16 -32 -23 -4 -7 -8 -103 -8 -214 l0 -203
28 -7 c47 -13 254 -9 295 6 96 33 144 116 134 227 -10 109 -62 177 -156 204
-52 16 -231 22 -261 10z m280 -47 c76 -34 109 -91 110 -190 0 -83 -29 -136
-94 -170 -35 -18 -171 -28 -250 -19 l-56 7 0 194 c0 145 3 195 13 199 6 3 62
4 122 2 83 -2 122 -8 155 -23z"/>
<path d="M8364 2079 c-17 -19 -19 -40 -21 -198 -1 -97 -2 -192 -2 -212 -1 -35
-2 -36 -47 -43 -75 -10 -74 -8 -74 -192 0 -157 1 -163 22 -178 12 -9 42 -16
66 -16 l44 0 -4 -292 -3 -293 30 -60 c58 -116 155 -160 350 -160 134 1 208 17
317 67 99 45 100 47 113 206 6 75 8 147 4 158 -11 30 -42 35 -121 19 -38 -8
-85 -15 -104 -15 -42 0 -89 22 -99 47 -5 10 -10 84 -13 166 l-4 147 141 0
c135 0 141 1 155 23 20 31 27 380 8 399 -10 10 -49 12 -159 10 l-146 -4 8 175
7 175 -23 15 c-13 8 -67 20 -119 27 -52 6 -135 20 -185 31 -111 24 -118 24
-141 -2z m121 -23 c33 -8 114 -22 180 -31 66 -9 124 -19 129 -22 4 -3 5 -81 1
-177 -6 -150 -5 -174 9 -185 11 -10 51 -12 158 -9 l143 3 -4 -180 c-2 -99 -5
-183 -8 -187 -2 -5 -69 -8 -148 -8 l-145 0 -6 -26 c-4 -14 -4 -87 -2 -162 6
-183 21 -213 117 -228 26 -4 73 0 127 11 98 21 108 16 100 -45 -3 -19 -8 -79
-12 -134 l-7 -98 -46 -30 c-71 -45 -192 -79 -303 -85 -161 -10 -287 28 -343
101 -52 68 -56 104 -49 407 7 274 7 277 -14 288 -11 6 -39 11 -61 11 -22 0
-43 5 -47 11 -3 6 -7 76 -8 156 -1 161 0 163 66 163 19 0 39 5 46 12 9 9 12
69 12 209 0 109 4 209 10 223 11 30 22 31 105 12z"/>
<path d="M10803 1874 c-7 -3 -13 -20 -13 -37 0 -16 -14 -82 -31 -144 -16 -63
-29 -126 -27 -141 l3 -27 336 4 c248 3 338 1 343 -8 4 -6 -8 -32 -27 -59 l-35
-47 72 0 c86 0 168 -35 216 -93 35 -42 64 -131 57 -170 -6 -30 -24 -49 247
248 l168 185 -6 90 c-9 115 -21 166 -42 182 -14 10 -98 13 -358 13 -188 0
-465 2 -616 5 -151 3 -281 2 -287 -1z"/>
<path d="M5223 1740 c-192 -35 -356 -160 -439 -335 -54 -113 -68 -183 -68
-330 0 -217 46 -338 179 -470 90 -91 160 -132 280 -167 67 -19 103 -23 220
-22 203 1 321 34 433 123 69 55 77 77 52 144 -28 74 -106 204 -134 222 -22 14
-29 12 -125 -37 l-102 -53 -102 0 c-85 0 -109 4 -142 22 -45 24 -91 68 -78 76
4 2 58 8 118 11 134 9 501 45 531 52 111 28 119 261 16 458 -68 130 -209 248
-349 292 -59 18 -220 26 -290 14z m256 -35 c132 -31 246 -114 330 -241 103
-153 132 -373 59 -441 -20 -19 -49 -24 -233 -42 -115 -11 -271 -25 -345 -31
-74 -6 -136 -13 -138 -15 -9 -8 31 -66 64 -93 104 -86 300 -78 457 19 l51 31
26 -30 c42 -50 122 -219 115 -242 -8 -26 -77 -81 -141 -113 -95 -48 -166 -61
-329 -62 -129 0 -160 3 -225 23 -215 67 -370 235 -416 452 -23 109 -14 278 20
387 31 97 106 214 174 273 134 116 352 167 531 125z"/>
<path d="M5250 1403 c-65 -25 -124 -120 -118 -190 3 -34 6 -38 32 -41 29 -4
277 25 302 35 32 12 10 90 -39 142 -49 52 -123 74 -177 54z m151 -71 c35 -37
58 -86 47 -97 -7 -7 -207 -35 -250 -35 -36 0 -38 2 -38 32 0 40 43 113 78 133
18 10 44 14 76 11 43 -3 55 -9 87 -44z"/>
<path d="M7503 1740 c-192 -35 -356 -160 -439 -335 -54 -113 -68 -183 -68
-330 0 -217 46 -338 179 -470 90 -91 160 -132 280 -167 67 -19 103 -23 220
-22 203 1 321 34 433 123 69 55 77 77 52 144 -28 74 -106 204 -134 222 -22 14
-29 12 -125 -37 l-102 -53 -102 0 c-85 0 -109 4 -142 22 -45 24 -91 68 -78 76
4 2 58 8 118 11 134 9 501 45 531 52 111 28 119 261 16 458 -68 130 -209 248
-349 292 -59 18 -220 26 -290 14z m256 -35 c132 -31 246 -114 330 -241 103
-153 132 -373 59 -441 -20 -19 -49 -24 -233 -42 -115 -11 -271 -25 -345 -31
-74 -6 -136 -13 -138 -15 -9 -8 31 -66 64 -93 104 -86 300 -78 457 19 l51 31
26 -30 c42 -50 122 -219 115 -242 -8 -26 -77 -81 -141 -113 -95 -48 -166 -61
-329 -62 -129 0 -160 3 -225 23 -215 67 -370 235 -416 452 -23 109 -14 278 20
387 31 97 106 214 174 273 134 116 352 167 531 125z"/>
<path d="M7530 1403 c-65 -25 -124 -120 -118 -190 3 -34 6 -38 32 -41 29 -4
277 25 302 35 32 12 10 90 -39 142 -49 52 -123 74 -177 54z m151 -71 c35 -37
58 -86 47 -97 -7 -7 -207 -35 -250 -35 -36 0 -38 2 -38 32 0 40 43 113 78 133
18 10 44 14 76 11 43 -3 55 -9 87 -44z"/>
<path d="M6455 1724 c-124 -27 -209 -76 -306 -174 -145 -146 -194 -278 -186
-500 7 -198 59 -322 189 -452 81 -80 194 -140 310 -163 98 -19 151 -19 269 1
119 21 193 48 219 82 24 30 23 59 -12 222 -24 112 -44 166 -65 174 -8 4 -46
-5 -85 -19 -89 -32 -157 -32 -223 -1 -27 13 -58 32 -67 42 -68 77 -61 233 13
301 61 56 138 65 262 33 57 -15 83 -18 97 -10 20 11 45 81 90 257 24 91 24 92
5 113 -75 83 -341 132 -510 94z m359 -48 c44 -15 92 -36 108 -48 26 -18 29
-25 24 -53 -11 -55 -77 -280 -85 -288 -4 -4 -45 2 -92 13 -101 24 -142 25
-200 5 -129 -46 -187 -212 -120 -343 36 -71 129 -122 222 -122 30 0 126 24
185 47 17 6 48 -93 70 -231 17 -102 17 -107 -1 -126 -40 -44 -247 -86 -378
-77 -113 8 -202 38 -292 98 -124 83 -214 212 -251 359 -22 87 -22 254 1 339
111 29 113 79 198 169 286 133 133 252 178 451 171 86 -3 127 -9 189 -30z"/>
<path d="M9675 1709 c-133 -22 -231 -75 -324 -175 -157 -167 -211 -464 -129
-709 45 -138 173 -290 292 -348 120 -59 257 -70 370 -31 27 9 77 38 111 64
l63 47 5 -39 c3 -22 14 -49 24 -60 17 -20 25 -20 199 -15 99 3 192 10 206 16
44 17 49 53 38 260 -16 275 -14 559 5 708 9 70 18 134 20 141 9 25 -15 50 -62
66 -80 26 -311 69 -337 62 -17 -4 -29 -19 -42 -51 l-17 -46 -26 25 c-82 78
-239 112 -396 85z m287 -51 c31 -15 77 -45 101 -68 25 -22 47 -37 50 -33 2 4
12 32 21 61 21 63 20 62 186 28 141 -29 198 -44 204 -55 3 -4 -2 -50 -10 -102
-22 -137 -29 -454 -15 -724 7 -129 10 -243 6 -254 -3 -11 -13 -22 -23 -26 -9
-4 -96 -9 -193 -12 -200 -7 -190 -10 -203 76 -4 24 -9 48 -12 53 -3 5 -29 -13
-57 -38 -182 -165 -437 -149 -621 39 -79 80 -134 174 -162 277 -24 85 -24 278
-1 372 53 218 209 376 417 423 101 23 242 15 312 -17z"/>
<path d="M9779 1306 c-97 -34 -149 -113 -149 -224 0 -104 45 -177 135 -218
124 -55 254 -5 306 111 25 53 25 157 0 210 -49 107 -179 162 -292 121z m197
-52 c71 -57 79 -75 79 -174 0 -84 -2 -90 -31 -127 -62 -77 -156 -103 -242 -68
-82 35 -122 100 -122 203 0 58 4 75 29 113 41 65 96 91 183 87 57 -3 72 -8
104 -34z"/>
<path d="M11340 1318 c-67 -34 -93 -79 -88 -151 4 -46 10 -63 34 -88 103 -110
302 -60 321 81 7 51 -25 117 -71 148 -53 36 -138 40 -196 10z m166 -19 c52
-25 90 -92 80 -140 -14 -72 -78 -119 -161 -119 -85 0 -145 50 -152 127 -11
116 117 189 233 132z"/>
<path d="M10929 929 c-112 -127 -209 -239 -216 -249 -9 -13 -10 -26 -2 -48 5
-16 18 -76 27 -133 17 -101 18 -103 47 -110 17 -4 315 -9 663 -11 580 -4 634
-3 642 12 14 26 38 187 42 275 l3 80 -80 -1 c-44 0 -212 -6 -373 -13 -161 -7
-300 -10 -308 -7 -21 8 -10 25 81 130 l77 87 -39 -8 c-88 -19 -202 7 -263 59
-32 27 -69 85 -79 126 -7 23 -13 42 -15 42 -2 0 -95 -104 -207 -231z"/>
</g>
</g>
</svg>
