<svg xmlns="http://www.w3.org/2000/svg" xmlns:bx="https://boxy-svg.com" width="1618.667" height="368" version="1.0" viewBox="0 0 1214 276"><path d="M1080.3 88.6c-.7.3-1.3 2-1.3 3.7 0 1.6-1.4 8.2-3.1 14.4-1.6 6.3-2.9 12.6-2.7 14.1l.3 2.7 33.6-.4c24.8-.3 33.8-.1 34.3.8.4.6-.8 3.2-2.7 5.9l-3.5 4.7h7.2c8.6 0 16.8 3.5 21.6 9.3 3.5 4.2 6.4 13.1 5.7 17-.6 3-2.4 4.9 24.7-24.8l16.8-18.5-.6-9c-.9-11.5-2.1-16.6-4.2-18.2-1.4-1-9.8-1.3-35.8-1.3-18.8 0-46.5-.2-61.6-.5s-28.1-.2-28.7.1" style="stroke-width:.1;fill:#0d4491"/><path d="M1092.9 183.1c-11.2 12.7-20.9 23.9-21.6 24.9-.9 1.3-1 2.6-.2 4.8.5 1.6 1.8 7.6 2.7 13.3 1.7 10.1 1.8 10.3 4.7 11 1.7.4 31.5.9 66.3 1.1 58 .4 63.4.3 64.2-1.2 1.4-2.6 3.8-18.7 4.2-27.5l.3-8-8 .1c-4.4 0-21.2.6-37.3 1.3s-30 1-30.8.7c-2.1-.8-1-2.5 8.1-13l7.7-8.7-3.9.8c-8.8 1.9-20.2-.7-26.3-5.9-3.2-2.7-6.9-8.5-7.9-12.6-.7-2.3-1.3-4.2-1.5-4.2s-9.5 10.4-20.7 23.1" style="stroke-width:.1;fill:#538cdd"/><text x="503.234" y="50.866" style="fill:#193681;font-family:Arial,sans-serif;font-size:29px;font-weight:700;paint-order:stroke;white-space:pre" transform="matrix(8.27384 0 0 8.3913 -3897.82 -204.732)">Receta</text><circle cx="1142.13" cy="159.362" r="16.616" style="stroke:#000;fill:#04f946"/><rect width="192.737" height="190.343" x="22.401" y="39.89" rx="23.942" ry="23.942" style="stroke:#000;fill:#538cdd"/><text style="fill:#193681;font-family:Arial,sans-serif;font-size:28px;font-weight:700;white-space:pre" transform="matrix(2.52542 0 0 1.92593 -357.903 416.86)"><tspan x="160.071" y="-158.83" style="font-size:29px">R</tspan><tspan>x</tspan></text><path d="M53.526 135.66h81.405v13.168H53.526z" style="stroke:#000;paint-order:fill;fill:#fff"/><path d="M53.526 165.291h81.405v13.168H53.526zM53.526 194.922h81.405v13.168H53.526z" style="stroke:#000;stroke-width:1;paint-order:fill;fill:#fff"/><path bx:shape="arrow 471.323 -155.309 68.697 60 28 41 0 1@e5e372f3" d="M471.323-139.309h27.697v-16l41 30-41 30v-16h-27.697z" style="stroke:#000;fill:#04f946" transform="rotate(-138.532 397.138 95.747)"/></svg>