<svg xmlns="http://www.w3.org/2000/svg" width="1605.333" height="353.333" version="1.0" viewBox="0 0 1204 265"><path d="M17 22c-6.3.4-12.3 1.1-13.3 1.5C.8 24.7.3 27.7 1.1 39.4c1.9 29.3 2.1 72.7.4 113s-1.7 40.9.3 43.5c2.7 3.7 7.3 4.2 31.3 3.9 16.5-.2 21-.6 22.4-1.8 1.6-1.3 1.7-2.8 1.2-15.5-.4-7.7-1.1-19.6-1.6-26.4-.5-6.7-.7-12.9-.4-13.7.4-1 2.4-1.4 6.8-1.4 10.7 0 10.1-.7 19.7 22.7 4.7 11.4 9.4 23.2 10.5 26.1 1 3 2.6 6.2 3.5 7.2 2.3 2.5 12.4 3.3 34 2.8 17.6-.4 21.8-1.2 21.8-4.4 0-2.7-5.4-15.2-17.4-40.1L122 131l8.8-8.7c6.1-6.1 9.7-10.5 11.5-14.3 5.4-11.6 7.2-30.4 4.2-44.3-4-18.9-18.5-33.2-40.5-39.8-7.1-2.2-9.4-2.3-42.5-2.5-19.2-.1-40.2.2-46.5.6m83 3.5c20.8 4.2 37.4 17.4 42.6 33.8 2.2 7 2.9 24.5 1.4 33.6-1.9 11.5-6.6 19.7-16.6 28.8-4.6 4.3-8.4 8.3-8.4 8.9s4.9 11.2 10.9 23.5c12.3 25.5 18.1 38.4 18.1 40.4 0 2.2-6.8 2.7-28.8 2.3-16.3-.2-20.4-.6-21.6-1.8-.7-.8-4.9-10.3-9.1-21-12.7-31.8-13.7-33.7-18.2-35-2.1-.6-6.9-1-10.8-.8l-7 .3.1 13.5c0 7.4.5 20 1.2 28 .8 9.9.8 14.8.1 15.5-.6.6-9.6 1-24.4 1-20.5 0-23.6-.2-25.1-1.7s-1.5-4.6.1-45.5C5.9 112.4 6 99.9 5.1 70c-.6-19.5-1.4-37.2-1.7-39.2-.6-3.4-.4-3.8 2.2-4.9C8.9 24.7 68.9 23 84 23.7c5.2.3 12.4 1.1 16 1.8"/><path d="M55 61c-1.3.6-2.8 1.6-3.2 2.3S51 73.6 51 84.7V105l2.8.7c4.7 1.3 25.4.9 29.5-.6 9.6-3.3 14.4-11.6 13.4-22.7Q95.2 66.05 81.1 62C75.9 60.4 58 59.8 55 61m28 4.7c7.6 3.4 10.9 9.1 11 19 0 8.3-2.9 13.6-9.4 17-3.5 1.8-17.1 2.8-25 1.9l-5.6-.7V83.5c0-14.5.3-19.5 1.3-19.9.6-.3 6.2-.4 12.2-.2 8.3.2 12.2.8 15.5 2.3M518.4 36.1c-1.7 1.9-1.9 4-2.1 19.8-.1 9.7-.2 19.2-.2 21.2-.1 3.5-.2 3.6-4.7 4.3-7.5 1-7.4.8-7.4 19.2 0 15.7.1 16.3 2.2 17.8 1.2.9 4.2 1.6 6.6 1.6h4.4l-.4 29.2-.3 29.3 3 6c5.8 11.6 15.5 16 35 16 13.4-.1 20.8-1.7 31.7-6.7 9.9-4.5 10-4.7 11.3-20.6.6-7.5.8-14.7.4-15.8-1.1-3-4.2-3.5-12.1-1.9-3.8.8-8.5 1.5-10.4 1.5-4.2 0-8.9-2.2-9.9-4.7-.5-1-1-8.4-1.3-16.6l-.4-14.7h14.1c13.5 0 14.1-.1 15.5-2.3 2-3.1 2.7-38 .8-39.9-1-1-4.9-1.2-15.9-1l-14.6.4.8-17.5.7-17.5-2.3-1.5c-1.3-.8-6.7-2-11.9-2.7-5.2-.6-13.5-2-18.5-3.1-11.1-2.4-11.8-2.4-14.1.2m12.1 2.3c3.3.8 11.4 2.2 18 3.1s12.4 1.9 12.9 2.2c.4.3.5 8.1.1 17.7-.6 15-.5 17.4.9 18.5 1.1 1 5.1 1.2 15.8.9l14.3-.3-.4 18c-.2 9.9-.5 18.3-.8 18.7-.2.5-6.9.8-14.8.8H562l-.6 2.6c-.4 1.4-.4 8.7-.2 16.2.6 18.3 2.1 21.3 11.7 22.8 2.6.4 7.3 0 12.7-1.1 9.8-2.1 10.8-1.6 10 4.5-.3 1.9-.8 7.9-1.2 13.4l-.7 9.8-4.6 3c-7.1 4.5-19.2 7.9-30.3 8.5-16.1 1-28.7-2.8-34.3-10.1-5.2-6.8-5.6-10.4-4.9-40.7.7-27.4.7-27.7-1.4-28.8-1.1-.6-3.9-1.1-6.1-1.1s-4.3-.5-4.7-1.1c-.3-.6-.7-7.6-.8-15.6-.1-16.1 0-16.3 6.6-16.3 1.9 0 3.9-.5 4.6-1.2.9-.9 1.2-6.9 1.2-20.9 0-10.9.4-20.9 1-22.3 1.1-3 2.2-3.1 10.5-1.2M762.3 56.6c-.7.3-1.3 2-1.3 3.7 0 1.6-1.4 8.2-3.1 14.4-1.6 6.3-2.9 12.6-2.7 14.1l.3 2.7 33.6-.4c24.8-.3 33.8-.1 34.3.8.4.6-.8 3.2-2.7 5.9l-3.5 4.7h7.2c8.6 0 16.8 3.5 21.6 9.3 3.5 4.2 6.4 13.1 5.7 17-.6 3-2.4 4.9 24.7-24.8l16.8-18.5-.6-9c-.9-11.5-2.1-16.6-4.2-18.2-1.4-1-9.8-1.3-35.8-1.3-18.8 0-46.5-.2-61.6-.5s-28.1-.2-28.7.1M204.3 70c-19.2 3.5-35.6 16-43.9 33.5-5.4 11.3-6.8 18.3-6.8 33 0 21.7 4.6 33.8 17.9 47 9 9.1 16 13.2 28 16.7 6.7 1.9 10.3 2.3 22 2.2 20.3-.1 32.1-3.4 43.3-12.3 6.9-5.5 7.7-7.7 5.2-14.4-2.8-7.4-10.6-20.4-13.4-22.2-2.2-1.4-2.9-1.2-12.5 3.7l-10.2 5.3h-10.2c-8.5 0-10.9-.4-14.2-2.2-4.5-2.4-9.1-6.8-7.8-7.6.4-.2 5.8-.8 11.8-1.1 13.4-.9 50.1-4.5 53.1-5.2 11.1-2.8 11.9-26.1 1.6-45.8-6.8-13-20.9-24.8-34.9-29.2-5.9-1.8-22-2.6-29-1.4m25.6 3.5c13.2 3.1 24.6 11.4 33 24.1 10.3 15.3 13.2 37.3 5.9 44.1-2 1.9-4.9 2.4-23.3 4.2-11.5 1.1-27.1 2.5-34.5 3.1s-13.6 1.3-13.8 1.5c-.9.8 3.1 6.6 6.4 9.3 10.4 8.6 30 7.8 45.7-1.9l5.1-3.1 2.6 3c4.2 5 12.2 21.9 11.5 24.2-.8 2.6-7.7 8.1-14.1 11.3-9.5 4.8-16.6 6.1-32.9 6.2-12.9 0-16-.3-22.5-2.3-21.5-6.7-37-23.5-41.6-45.2-2.3-10.9-1.4-27.8 2-38.7 3.1-9.7 10.6-21.4 17.4-27.3 13.4-11.6 35.2-16.7 53.1-12.5"/><path d="M207 103.7c-6.5 2.5-12.4 12-11.8 19 .3 3.4.6 3.8 3.2 4.1 2.9.4 27.7-2.5 30.2-3.5 3.2-1.2 1-9-3.9-14.2s-12.3-7.4-17.7-5.4m15.1 7.1c3.5 3.7 5.8 8.6 4.7 9.7-.7.7-20.7 3.5-25 3.5-3.6 0-3.8-.2-3.8-3.2 0-4 4.3-11.3 7.8-13.3 1.8-1 4.4-1.4 7.6-1.1 4.3.3 5.5.9 8.7 4.4M432.3 70c-19.2 3.5-35.6 16-43.9 33.5-5.4 11.3-6.8 18.3-6.8 33 0 21.7 4.6 33.8 17.9 47 9 9.1 16 13.2 28 16.7 6.7 1.9 10.3 2.3 22 2.2 20.3-.1 32.1-3.4 43.3-12.3 6.9-5.5 7.7-7.7 5.2-14.4-2.8-7.4-10.6-20.4-13.4-22.2-2.2-1.4-2.9-1.2-12.5 3.7l-10.2 5.3h-10.2c-8.5 0-10.9-.4-14.2-2.2-4.5-2.4-9.1-6.8-7.8-7.6.4-.2 5.8-.8 11.8-1.1 13.4-.9 50.1-4.5 53.1-5.2 11.1-2.8 11.9-26.1 1.6-45.8-6.8-13-20.9-24.8-34.9-29.2-5.9-1.8-22-2.6-29-1.4m25.6 3.5c13.2 3.1 24.6 11.4 33 24.1 10.3 15.3 13.2 37.3 5.9 44.1-2 1.9-4.9 2.4-23.3 4.2-11.5 1.1-27.1 2.5-34.5 3.1s-13.6 1.3-13.8 1.5c-.9.8 3.1 6.6 6.4 9.3 10.4 8.6 30 7.8 45.7-1.9l5.1-3.1 2.6 3c4.2 5 12.2 21.9 11.5 24.2-.8 2.6-7.7 8.1-14.1 11.3-9.5 4.8-16.6 6.1-32.9 6.2-12.9 0-16-.3-22.5-2.3-21.5-6.7-37-23.5-41.6-45.2-2.3-10.9-1.4-27.8 2-38.7 3.1-9.7 10.6-21.4 17.4-27.3 13.4-11.6 35.2-16.7 53.1-12.5"/><path d="M435 103.7c-6.5 2.5-12.4 12-11.8 19 .3 3.4.6 3.8 3.2 4.1 2.9.4 27.7-2.5 30.2-3.5 3.2-1.2 1-9-3.9-14.2s-12.3-7.4-17.7-5.4m15.1 7.1c3.5 3.7 5.8 8.6 4.7 9.7-.7.7-20.7 3.5-25 3.5-3.6 0-3.8-.2-3.8-3.2 0-4 4.3-11.3 7.8-13.3 1.8-1 4.4-1.4 7.6-1.1 4.3.3 5.5.9 8.7 4.4M327.5 71.6c-12.4 2.7-20.9 7.6-30.6 17.4-14.5 14.6-19.4 27.8-18.6 50 .7 19.8 5.9 32.2 18.9 45.2 8.1 8 19.4 14 31 16.3 9.8 1.9 15.1 1.9 26.9-.1 11.9-2.1 19.3-4.8 21.9-8.2 2.4-3 2.3-5.9-1.2-22.2-2.4-11.2-4.4-16.6-6.5-17.4-.8-.4-4.6.5-8.5 1.9-8.9 3.2-15.7 3.2-22.3.1-2.7-1.3-5.8-3.2-6.7-4.2-6.8-7.7-6.1-23.3 1.3-30.1 6.1-5.6 13.8-6.5 26.2-3.3 5.7 1.5 8.3 1.8 9.7 1 2-1.1 4.5-8.1 9-25.7 2.4-9.1 2.4-9.2.5-11.3-7.5-8.3-34.1-13.2-51-9.4m35.9 4.8c4.4 1.5 9.2 3.6 10.8 4.8 2.6 1.8 2.9 2.5 2.4 5.3-1.1 5.5-7.7 28-8.5 28.8-.4.4-4.5-.2-9.2-1.3-10.1-2.4-14.2-2.5-20-.5-12.9 4.6-18.7 21.2-12 34.3 3.6 7.1 12.9 12.2 22.2 12.2 3 0 12.6-2.4 18.5-4.7 1.7-.6 4.8 9.3 7 23.1 1.7 10.2 1.7 10.7-.1 12.6-4 4.4-24.7 8.6-37.8 7.7-11.3-.8-20.2-3.8-29.2-9.8-12.4-8.3-21.4-21.2-25.1-35.9-2.2-8.7-2.2-25.4.1-33.9 2.9-11.3 7.9-19.8 16.9-28.6 13.3-13.3 25.2-17.8 45.1-17.1 8.6.3 12.7.9 18.9 3M649.5 73.1c-13.3 2.2-23.1 7.5-32.4 17.5-15.7 16.7-21.1 46.4-12.9 70.9 4.5 13.8 17.3 29 29.2 34.8 12 5.9 25.7 7 37 3.1 2.7-.9 7.7-3.8 11.1-6.4l6.3-4.7.5 3.9c.3 2.2 1.4 4.9 2.4 6 1.7 2 2.5 2 19.9 1.5 9.9-.3 19.2-1 20.6-1.6 4.4-1.7 4.9-5.3 3.8-26-1.6-27.5-1.4-55.9.5-70.8.9-7 1.8-13.4 2-14.1.9-2.5-1.5-5-6.2-6.6-8-2.6-31.1-6.9-33.7-6.2-1.7.4-2.9 1.9-4.2 5.1l-1.7 4.6-2.6-2.5c-8.2-7.8-23.9-11.2-39.6-8.5m28.7 5.1c3.1 1.5 7.7 4.5 10.1 6.8 2.5 2.2 4.7 3.7 5 3.3.2-.4 1.2-3.2 2.1-6.1 2.1-6.3 2-6.2 18.6-2.8 14.1 2.9 19.8 4.4 20.4 5.5.3.4-.2 5-1 10.2-2.2 13.7-2.9 45.4-1.5 72.4.7 12.9 1 24.3.6 25.4-.3 1.1-1.3 2.2-2.3 2.6-.9.4-9.6.9-19.3 1.2-20 .7-19 1-20.3-7.6-.4-2.4-.9-4.8-1.2-5.3s-2.9 1.3-5.7 3.8c-18.2 16.5-43.7 14.9-62.1-3.9-7.9-8-13.4-17.4-16.2-27.7-2.4-8.5-2.4-27.8-.1-37.2 5.3-21.8 20.9-37.6 41.7-42.3 10.1-2.3 24.2-1.5 31.2 1.7"/><path d="M659.9 113.4c-9.7 3.4-14.9 11.3-14.9 22.4 0 10.4 4.5 17.7 13.5 21.8 11.6 5.5 25.4.5 30.6-11.1 2.5-5.3 2.5-15.7 0-21-4.9-10.7-17.9-16.2-29.2-12.1m19.7 5.2c7.1 5.7 7.9 7.5 7.9 17.4 0 8.4-.2 9-3.1 12.7-6.2 7.7-15.6 10.3-24.2 6.8-8.2-3.5-12.2-10-12.2-20.3 0-5.8.4-7.5 2.9-11.3 4.1-6.5 9.6-9.1 18.3-8.7 5.7.3 7.2.8 10.4 3.4M816 112.2c-6.7 3.4-9.3 7.9-8.8 15.1.4 4.6 1 6.3 3.4 8.8 10.3 11 30.2 6 32.1-8.1.7-5.1-2.5-11.7-7.1-14.8-5.3-3.6-13.8-4-19.6-1m16.6 1.9c5.2 2.5 9 9.2 8 14-1.4 7.2-7.8 11.9-16.1 11.9-8.5 0-14.5-5-15.2-12.7-1.1-11.6 11.7-18.9 23.3-13.2"/><path d="M774.9 151.1C763.7 163.8 754 175 753.3 176c-.9 1.3-1 2.6-.2 4.8.5 1.6 1.8 7.6 2.7 13.3 1.7 10.1 1.8 10.3 4.7 11 1.7.4 31.5.9 66.3 1.1 58 .4 63.4.3 64.2-1.2 1.4-2.6 3.8-18.7 4.2-27.5l.3-8-8 .1c-4.4 0-21.2.6-37.3 1.3s-30 1-30.8.7c-2.1-.8-1-2.5 8.1-13l7.7-8.7-3.9.8c-8.8 1.9-20.2-.7-26.3-5.9-3.2-2.7-6.9-8.5-7.9-12.6-.7-2.3-1.3-4.2-1.5-4.2s-9.5 10.4-20.7 23.1"/></svg>